Coordinates
version=1
nRows=15
nColumns=34
inDegrees=yes

Units are S.I. units (second, meters, Newtons, ...)
If the header above contains a line with 'inDegrees', this indicates whether rotational values are in degrees (yes) or radians (no).

endheader
time	pelvis_tilt	pelvis_list	pelvis_rotation	pelvis_tx	pelvis_ty	pelvis_tz	hip_flexion_l	hip_adduction_l	hip_rotation_l	hip_flexion_r	hip_adduction_r	hip_rotation_r	knee_angle_l_beta	knee_angle_r_beta	knee_angle_l	knee_angle_r	ankle_angle_l	ankle_angle_r	subtalar_angle_l	subtalar_angle_r	mtp_angle_l	mtp_angle_r	lumbar_ext	lumbar_bend	lumbar_rota	shoulder_flexion_r	shoulder_adduction_r	shoulder_rotation_r	elbow_flexion_r	shoulder_flexion_l	shoulder_adduction_l	shoulder_rotation_l	elbow_flexion_l
      0.42000000	     48.13895415	      3.25029224	      0.70359071	     -0.81445437	      1.10984153	      0.29083069	    -34.04806904	     -1.79642315	     -2.98141048	    -54.91496137	      2.83041654	     -7.58632114	      0.70057688	     -0.05588736	    -40.14009851	      3.20210999	      6.35495239	      3.29048027	      8.39847545	      0.13822646	    -19.77006918	    -18.69242526	    -61.84267293	     -3.87095791	      0.67525656	      4.63860713	     -9.55408323	     12.68749630	     27.42027975	      4.98029588	     -8.77042044	      8.60883205	     29.76995561
      0.43000000	     47.95139678	      3.83705019	      0.42450476	     -0.80514167	      1.10956424	      0.29199360	    -33.28154567	     -0.83907914	     -2.81610624	    -55.58496235	      2.31769489	     -8.06037105	      0.66502415	     -0.06662810	    -38.10307692	      3.81750919	      6.63472024	      3.59255402	      8.87079357	      0.49475931	    -19.87824976	    -18.64565317	    -61.81886665	     -4.54757338	      0.51530651	      4.77650663	     -9.57308918	     12.43538171	     27.63978783	      4.99046177	     -8.91736499	      8.72257100	     29.34730205
      0.44000000	     47.79146913	      4.44086743	      0.13973858	     -0.79580478	      1.10914206	      0.29301720	    -32.62670160	      0.15828766	     -2.64454580	    -56.29401185	      1.78899804	     -8.53972299	      0.62698620	     -0.07750663	    -35.92366282	      4.44080251	      6.75894028	      3.92757159	      9.29146219	      0.89861260	    -19.93618562	    -18.60818138	    -61.82676104	     -5.22228509	      0.34049470	      4.89205958	     -9.60071460	     12.14026450	     27.87719107	      4.96675721	     -9.09712952	      8.97362868	     29.04963218
      0.45000000	     47.61168965	      4.98333750	     -0.10722737	     -0.78641952	      1.10852869	      0.29387583	    -32.01691094	      1.07235087	     -2.52358551	    -56.97117714	      1.33212165	     -8.92238006	      0.58755695	     -0.08809700	    -33.66453325	      5.04758600	      6.86054057	      4.21946446	      9.91118267	      1.11758136	    -19.92869233	    -18.62719935	    -61.80292328	     -5.81578237	      0.18760311	      5.02306432	     -9.64947936	     11.91096945	     28.10077000	      4.95765247	     -9.22469314	      9.17214834	     28.69673980
      0.46000000	     47.44122065	      5.49174699	     -0.33215409	     -0.77704538	      1.10777196	      0.29480121	    -31.49074036	      1.93126924	     -2.42562231	    -57.64068551	      0.92377213	     -9.23698460	      0.54634258	     -0.09791084	    -31.30312429	      5.60987797	      6.85645511	      4.51487205	     10.56926482	      1.26306522	    -19.89519932	    -18.68524514	    -61.79485090	     -6.39175664	      0.05187112	      5.13892497	     -9.67830180	     11.71206068	     28.31989957	      4.96751469	     -9.38682430	      9.36830927	     28.36569981
      0.47000000	     47.28178115	      5.95774270	     -0.54724053	     -0.76766320	      1.10690783	      0.29555663	    -31.05068231	      2.75529311	     -2.31300979	    -58.28248048	      0.54592458	     -9.48636375	      0.50380626	     -0.10653183	    -28.86597234	      6.10382401	      6.77804125	      4.82696709	     11.22330765	      1.35370948	    -19.85125962	    -18.76924928	    -61.79589760	     -6.90726495	     -0.04843855	      5.26452681	     -9.73949111	     11.52758477	     28.51874401	      4.96924935	     -9.51183372	      9.55614190	     28.04166075
      0.48000000	     47.13333185	      6.40225695	     -0.77183579	     -0.75821626	      1.10594764	      0.29626327	    -30.71346369	      3.56048661	     -2.24219875	    -58.91138363	      0.16805807	     -9.71029436	      0.45936074	     -0.11414096	    -26.31943176	      6.53979523	      6.56842924	      5.15707478	     11.83802675	      1.41714972	    -19.80212208	    -18.88379175	    -61.79904609	     -7.41538726	     -0.13811130	      5.37909518	     -9.78274989	     11.34626840	     28.71667362	      4.96761713	     -9.63675819	      9.75661178	     27.74709490
      0.49000000	     46.69508974	      6.43525622	     -0.63697655	     -0.74894316	      1.10462699	      0.29644473	    -29.99338525	      3.80696774	     -2.13023685	    -59.11762501	      0.31246398	     -9.73695472	      0.41891065	     -0.11858115	    -24.00181221	      6.79419957	      6.48171427	      5.45593877	     12.20046525	      1.38880289	    -19.88736663	    -18.90837516	    -61.57421229	     -7.39758086	     -0.11695529	      5.57396525	     -9.85766681	     11.27372276	     28.92540285	      4.89365748	     -9.73012886	      9.79414974	     27.59574437
      0.50000000	     46.89540280	      7.20962520	     -1.29346528	     -0.73911458	      1.10376699	      0.29772740	    -30.34056523	      5.09345034	     -2.29146525	    -60.14370314	     -0.58393237	    -10.05512123	      0.36687826	     -0.12611914	    -21.02057573	      7.22609420	      5.91792765	      5.83446703	     12.79372196	      1.44197701	    -19.80372153	    -19.15821851	    -61.82814875	     -8.43966445	     -0.25243096	      5.58672471	     -9.87984116	     11.01684044	     29.08790926	      4.93559140	     -9.85820861	     10.07435349	     27.19414708
      0.51000000	     46.72058914	      7.44933960	     -1.42244533	     -0.72960848	      1.10253070	      0.29815188	    -30.17954000	      5.64925535	     -2.20318557	    -60.59048827	     -0.76968546	    -10.15952245	      0.32060883	     -0.12847708	    -18.36953298	      7.36119429	      5.63004499	      6.25936142	     13.05526109	      1.44284902	    -19.80688876	    -19.29455903	    -61.79361096	     -8.74006084	     -0.23591774	      5.70801876	     -9.92760655	     10.85378534	     29.23194908	      4.93120494	     -9.92395821	     10.17173245	     26.91549719
      0.52000000	     46.68451367	      7.78163013	     -1.73534949	     -0.71988338	      1.10133834	      0.29884728	    -30.29220687	      6.35699074	     -2.29056809	    -61.18928543	     -1.14621588	    -10.31029017	      0.27199624	     -0.13060427	    -15.58423676	      7.48307342	      5.15981053	      6.68478409	     13.15319188	      1.46975228	    -19.83889985	    -19.48407717	    -61.85643022	     -9.22855502	     -0.22288562	      5.78525425	     -9.96970948	     10.66647584	     29.37565873	      4.92339642	     -9.99636758	     10.27297758	     26.62280914
      0.53000000	     46.62148769	      8.09151390	     -2.07937451	     -0.71000604	      1.10004727	      0.29952872	    -30.44034251	      7.06420073	     -2.43840575	    -61.72644393	     -1.53278206	    -10.53507669	      0.22368756	     -0.13182166	    -12.81635302	      7.55282475	      4.62118790	      7.12034321	     12.94149362	      1.59391503	    -19.87056614	    -19.76475355	    -61.87506738	     -9.72819335	     -0.18425889	      5.82232954	     -9.99039280	     10.45023938	     29.55944001	      4.87559414	    -10.06696398	     10.40131287	     26.38829059
      0.54000000	     46.56972043	      8.25103413	     -2.29245653	     -0.70020742	      1.09874224	      0.29996142	    -30.63948268	      7.55531068	     -2.50906581	    -62.18568435	     -1.73321402	    -10.68099333	      0.17694068	     -0.12984943	    -10.13795401	      7.43982409	      4.19778305	      7.62282696	     12.73319046	      1.65491566	    -20.00968764	    -19.94203594	    -61.89973697	    -10.02412213	     -0.10168683	      5.91877163	    -10.01319593	     10.27397565	     29.65417303	      4.85466528	    -10.09846788	     10.41989417	     26.09922354
      0.55000000	     46.41891242	      8.32750396	     -2.40444810	     -0.69032833	      1.09730361	      0.30024215	    -30.75422106	      7.90590554	     -2.50044699	    -62.49683973	     -1.81158457	    -10.79559810	      0.13280818	     -0.12634834	     -7.60934821	      7.23922635	      3.91986649	      8.11855235	     12.59076086	      1.66664641	    -20.21057296	    -20.01827312	    -61.83138162	    -10.20556018	      0.04784076	      6.00965617	    -10.04222061	     10.14183115	     29.69383813	      4.83540058	    -10.10976916	     10.39976644	     25.89861173
      0.56000000	     46.42795503	      8.57682461	     -2.74806773	     -0.68014262	      1.09590493	      0.30074249	    -31.12991817	      8.56558156	     -2.48964458	    -62.97229288	     -2.15969431	    -11.32135493	      0.08885857	     -0.12228945	     -5.09122094	      7.00666956	      3.29909020	      8.76911586	     11.45329230	      2.22327382	    -20.74485583	    -20.38376089	    -61.88031104	    -10.65062904	      0.10673138	      5.99806757	    -10.04260753	      9.83496472	     29.86668245	      4.77112372	    -10.16873955	     10.52519197	     25.63869387
